<svg xmlns="http://www.w3.org/2000/svg" viewBox="0 0 1200 800" width="1200" height="800">
<defs><linearGradient id="g" x1="0" y1="0" x2="0" y2="1"><stop offset="0" stop-color="#dbe6ea"/><stop offset="1" stop-color="#eef3f4"/></linearGradient></defs>
<rect width="1200" height="800" fill="url(#g)"/><rect x="0" y="600" width="1200" height="200" fill="#9aa9a6"/><rect x="0" y="590" width="1200" height="14" fill="#f4b43c"/><rect x="220" y="270" width="560" height="280" rx="30" fill="#ffffff"/><path d="M780 330 h140 l90 110 v110 h-230z" fill="#ffffff"/><path d="M800 350 h110 l60 80 h-170z" fill="#bfe3f0"/><rect x="220" y="440" width="790" height="30" fill="#c8102e"/><rect x="440" y="300" width="120" height="120" rx="10" fill="#c8102e"/><path d="M500 320v80M460 360h80" stroke="#ffffff" stroke-width="18" stroke-linecap="round"/><rect x="300" y="236" width="90" height="34" rx="10" fill="#c8102e"/><rect x="390" y="236" width="90" height="34" rx="10" fill="#2b6fd6"/><circle cx="360" cy="560" r="70" fill="#12302e"/><circle cx="360" cy="560" r="30" fill="#c7cfcd"/><circle cx="860" cy="560" r="70" fill="#12302e"/><circle cx="860" cy="560" r="30" fill="#c7cfcd"/></svg>